<svg width="25" height="25" viewBox="0 0 25 25" fill="none" xmlns="http://www.w3.org/2000/svg">
<g clip-path="url(#clip0_73_64)">
<g clip-path="url(#clip1_73_64)">
<path d="M21.4994 9.61165C21.4994 8.47176 21.1334 7.40094 20.4347 6.4683C20.7008 5.5702 20.7674 4.43031 20.7008 3.1177C20.6676 2.56502 20.235 2.15051 19.7027 2.15051C19.4032 2.15051 16.8746 2.18505 15.4106 3.53221C14.1463 3.29041 12.8154 3.29041 11.5178 3.53221C10.0872 2.18505 7.55851 2.15051 7.22579 2.15051C6.69344 2.15051 6.26091 2.56502 6.22764 3.1177C6.12783 4.43031 6.22764 5.5702 6.49381 6.4683C5.79511 7.43549 5.42912 8.5063 5.42912 9.61165C5.42912 12.0296 7.22579 14.2058 9.95407 15.2421C9.85426 15.4493 9.78771 15.6911 9.72117 15.9329C6.82653 15.622 5.46239 12.8932 5.39585 12.7895C5.16295 12.2714 4.56405 12.0642 4.06498 12.3405C3.5659 12.5823 3.36627 13.2041 3.63245 13.7222C3.69899 13.8949 5.52893 17.5909 9.55481 18.0054V21.1142C9.55481 21.7015 9.98735 22.1505 10.553 22.1505H16.3755C16.9411 22.1505 17.3737 21.7015 17.3737 21.1142V17.0037C17.3737 16.3819 17.2406 15.7947 17.0077 15.2766C19.7027 14.2058 21.4994 12.0642 21.4994 9.61165Z" fill="white"/>
</g>
</g>
<defs>
<clipPath id="clip0_73_64">
<rect width="18" height="20" fill="white" transform="translate(3.5 2.15051)"/>
</clipPath>
<clipPath id="clip1_73_64">
<rect width="18" height="20" fill="white" transform="translate(3.5 2.15051)"/>
</clipPath>
</defs>
</svg>
