<svg width="25" height="25" viewBox="0 0 25 25" fill="none" xmlns="http://www.w3.org/2000/svg">
<g clip-path="url(#clip0_73_70)">
<path d="M16.1444 5.18506C12.6556 5.18506 9.78857 8.01265 9.78857 11.5299V21.4609C9.78857 21.8402 10.0995 22.1506 10.4794 22.1506H14.0718C14.4518 22.1506 14.7627 21.8402 14.7627 21.4609V11.8057C14.7627 11.0471 15.3844 10.4264 16.1444 10.4264C16.9043 10.4264 17.5261 11.0471 17.5261 11.8057V21.4609C17.5261 21.8402 17.8369 22.1506 18.2169 22.1506H21.8093C22.1893 22.1506 22.5001 21.8402 22.5001 21.4609V11.5299C22.5001 8.04713 19.6677 5.18506 16.1444 5.18506Z" fill="white"/>
<path d="M6.78325 8.42639H3.19085C2.81088 8.42639 2.5 8.73674 2.5 9.11605V21.4609C2.5 21.8402 2.81088 22.1505 3.19085 22.1505H6.78325C7.16321 22.1505 7.47409 21.8402 7.47409 21.4609V9.11605C7.47409 8.73674 7.16321 8.42639 6.78325 8.42639Z" fill="white"/>
<path d="M4.98705 2.15051C3.60535 2.15051 2.5 3.25396 2.5 4.63327C2.5 6.01258 3.60535 7.11603 4.98705 7.11603C6.36874 7.11603 7.47409 6.01258 7.47409 4.63327C7.47409 3.25396 6.36874 2.15051 4.98705 2.15051Z" fill="white"/>
</g>
<defs>
<clipPath id="clip0_73_70">
<rect width="20" height="20" fill="white" transform="translate(2.5 2.15051)"/>
</clipPath>
</defs>
</svg>
