<svg width="25" height="25" viewBox="0 0 25 25" fill="none" xmlns="http://www.w3.org/2000/svg">
<g clip-path="url(#clip0_73_80)">
<path d="M11.964 22.1505C16.6607 22.1505 19.5832 18.6897 19.5832 14.2247C19.5832 12.5413 19.309 11.0213 17.3982 10.5647C17.8632 9.29135 19.2048 5.60801 19.2048 4.42801C19.2048 3.38885 18.5798 2.51801 17.4657 2.51801C15.6898 2.51801 14.0982 7.66218 13.5998 8.88885C13.214 7.77551 11.4073 2.15051 9.81484 2.15051C8.57734 2.15051 7.99651 3.04468 7.99651 4.16968C7.99651 5.54885 9.35734 9.12301 9.85068 10.498C9.60068 10.408 9.32984 10.3297 9.05401 10.3297C8.12234 10.3297 7.13151 11.4663 7.13151 12.3847C7.13151 12.7322 7.32651 13.2205 7.44984 13.5447C5.98151 13.9355 5.41651 14.8963 5.41651 16.3455C5.41234 19.1655 8.13568 22.1505 11.964 22.1505ZM15.989 6.36968C16.149 5.88885 16.829 3.85801 17.4657 3.85801C17.8082 3.85801 17.8998 4.20551 17.8998 4.48301C17.8998 5.22885 16.364 9.35051 16.0248 10.2638L14.6715 10.0297L15.989 6.36968ZM9.24651 4.03801V4.03718C9.24651 3.57218 9.82401 2.25218 11.089 5.87718L12.4665 9.79551C11.8457 9.74468 11.364 9.67801 11.0582 9.85051C10.624 8.72551 9.24651 5.17468 9.24651 4.03801ZM9.15484 11.6813L9.15568 11.6822C10.3215 11.6822 11.8265 15.3772 11.8265 15.8772C11.8265 16.0763 11.6315 16.3222 11.4048 16.3222C10.5723 16.3222 8.34318 13.318 8.34318 12.5055C8.34651 12.2047 8.84818 11.6813 9.15484 11.6813ZM7.81484 14.7397C8.26818 14.7397 9.97568 17.0955 9.97568 17.5955C9.97568 17.7872 9.66901 17.9197 9.51068 17.9197C8.86984 17.9197 8.61901 17.3138 7.47734 15.9122C6.29484 17.0722 8.29318 19.3063 9.79818 19.3063C10.8365 19.3063 11.5132 18.3613 11.3107 17.6655C11.4582 17.6655 11.6407 17.6772 11.7765 17.6422C11.8207 18.7005 12.139 19.9622 13.4365 20.0522C13.4365 20.0172 13.5165 19.7747 13.5165 19.763C13.5165 19.083 13.0948 18.4897 13.0948 17.798C13.0948 16.6922 13.9582 15.6222 14.834 14.9972C15.1523 14.763 15.539 14.618 15.9123 14.4855C16.299 14.3413 16.709 14.173 17.0023 13.8838C16.9582 13.4463 16.7757 13.0597 16.3298 13.0597C15.2273 13.0597 11.5298 13.2163 11.5298 11.5088C11.5298 11.2472 11.534 10.9972 12.2232 10.9972C13.509 10.9972 16.7732 11.3097 17.7282 12.1338C18.4482 12.763 18.6957 16.5555 16.494 18.958L16.4915 18.9588C15.3332 20.2088 13.8523 20.8572 12.1248 20.8572C9.76068 20.8572 7.89318 19.5838 6.99401 17.408C6.31318 15.713 7.14568 14.7397 7.81484 14.7397ZM12.5657 14.0363C12.9532 14.158 13.3507 14.1938 13.749 14.2713C13.454 14.4822 13.1923 14.7405 12.9407 15.0172C12.829 14.6855 12.6932 14.3613 12.5657 14.0363Z" fill="white"/>
</g>
<defs>
<clipPath id="clip0_73_80">
<rect width="20" height="20" fill="white" transform="translate(2.5 2.15051)"/>
</clipPath>
</defs>
</svg>
