<svg width="25" height="25" viewBox="0 0 25 25" fill="none" xmlns="http://www.w3.org/2000/svg">
<path d="M20.9042 6.03093L22.5 4.4882V4.15051H16.9717L13.0317 14.0604L8.54917 4.15051H2.7525V4.4882L4.61667 6.75599C4.79833 6.92357 4.89333 7.16862 4.86917 7.41535V16.3274C4.92667 16.6482 4.82333 16.9783 4.6 17.2116L2.5 19.7834V20.1168H8.45417V19.7791L6.35417 17.2116C6.12667 16.9775 6.01917 16.6532 6.065 16.3274V8.61872L11.2917 20.121H11.8992L16.3933 8.61872V17.7817C16.3933 18.0234 16.3933 18.073 16.2367 18.2314L14.62 19.812V20.1505H22.4633V19.8128L20.905 18.2709C20.7683 18.1665 20.6975 17.9914 20.7267 17.8212V6.48062C20.6975 6.30967 20.7675 6.13451 20.9042 6.03093Z" fill="white"/>
</svg>
