<svg width="25" height="25" viewBox="0 0 25 25" fill="none" xmlns="http://www.w3.org/2000/svg">
<g clip-path="url(#clip0_73_84)">
<g clip-path="url(#clip1_73_84)">
<path d="M22.2665 2.52016C21.9331 2.12149 21.3665 2.02182 20.9331 2.32082L18.9998 3.64972C18.0998 2.68627 16.8331 2.15471 15.4665 2.15471C12.7665 2.15471 10.5331 4.34739 10.5331 7.07164C10.5331 7.47031 10.5665 7.83576 10.6665 8.2012C8.33313 7.70287 6.93313 6.00852 6.3998 2.95205C6.33313 2.55338 6.03313 2.25438 5.63313 2.15471C5.26646 2.05504 4.86646 2.22115 4.63313 2.52016C4.56646 2.5866 -0.933537 10.2278 7.03313 16.7062C6.26646 18.3341 3.96646 19.7294 3.06646 20.1945C2.63313 20.3939 2.43313 20.859 2.53313 21.3241C2.63313 21.7892 3.03313 22.0882 3.4998 22.0882H5.23313C15.3665 22.0882 19.9665 17.0716 20.0665 5.84241L22.1665 3.84906C22.5665 3.51683 22.5998 2.91883 22.2665 2.52016Z" fill="white"/>
</g>
</g>
<defs>
<clipPath id="clip0_73_84">
<rect width="20" height="20" fill="white" transform="translate(2.5 2.15051)"/>
</clipPath>
<clipPath id="clip1_73_84">
<rect width="20" height="19.9667" fill="white" transform="translate(2.5 2.12183)"/>
</clipPath>
</defs>
</svg>
